{"accessors":[{"bufferView":0,"byteOffset":0,"componentType":5126,"count":72,"max":[0.3,0.4,0.249335],"min":[-0.3,-0.4,-0.266667],"normalized":false,"type":"VEC3"},{"bufferView":1,"byteOffset":0,"componentType":5126,"count":72,"max":[1,0,-0.000015,1],"min":[-1,0,-1,1],"normalized":false,"type":"VEC4"},{"bufferView":2,"byteOffset":0,"componentType":5126,"count":72,"max":[1,1,1],"min":[-1,-1,-1],"normalized":false,"type":"VEC3"},{"bufferView":3,"byteOffset":0,"componentType":5126,"count":72,"max":[0.875,1],"min":[0.125,0],"normalized":false,"type":"VEC2"},{"bufferView":4,"byteOffset":0,"componentType":5125,"count":108,"max":[71],"min":[0],"normalized":false,"type":"SCALAR"},{"bufferView":5,"byteOffset":0,"componentType":5126,"count":34,"max":[1.25],"min":[0],"normalized":false,"type":"SCALAR"},{"bufferView":6,"byteOffset":0,"componentType":5126,"count":34,"max":[0.707107,0.707091,0.707107,0.707107],"min":[0,-0.707107,-0.707091,0],"normalized":false,"type":"VEC4"}],"animations":[{"channels":[{"sampler":0,"target":{"node":2,"path":"rotation"}}],"name":"altarAction002","samplers":[{"input":5,"interpolation":"LINEAR","output":6}]}],"asset":{"generator":"Godot Engine v4.0.2.stable.official@7a0977ce2c558fe6219f0a14f8bd4d05aea8f019","version":"2.0"},"bufferViews":[{"buffer":0,"byteLength":864,"byteOffset":0},{"buffer":0,"byteLength":1152,"byteOffset":864},{"buffer":0,"byteLength":864,"byteOffset":2016},{"buffer":0,"byteLength":576,"byteOffset":2880},{"buffer":0,"byteLength":432,"byteOffset":3456},{"buffer":0,"byteLength":136,"byteOffset":3888},{"buffer":0,"byteLength":544,"byteOffset":4024}],"buffers":[{"byteLength":4568,"uri":"altar_moving0.bin"}],"materials":[{"doubleSided":true,"extensions":{},"name":"Material001","pbrMetallicRoughness":{"baseColorFactor":[0.799999892711639,0.799999892711639,0.799999892711639,1],"metallicFactor":0,"roughnessFactor":0.399999976158142}}],"meshes":[{"extras":{"targetNames":[]},"primitives":[{"attributes":{"NORMAL":2,"POSITION":0,"TANGENT":1,"TEXCOORD_0":3},"indices":4,"material":0,"mode":4}]}],"nodes":[{"children":[1],"extensions":{},"name":"altar-moving"},{"children":[2,3],"extensions":{},"name":"altar-copy"},{"extensions":{},"mesh":0,"name":"altar","rotation":[0.0000000533850759154575,-0.70710676908493,0.70710676908493,0.0000000533850759154575],"translation":[0.00554811954498291,0.243333369493484,0]},{"extensions":{},"name":"AnimationPlayer"}],"scene":0,"scenes":[{"nodes":[0]}]}