{
	"asset":{
		"generator":"Khronos glTF Blender I/O v3.6.27",
		"version":"2.0"
	},
	"scene":0,
	"scenes":[
		{
			"name":"Scene",
			"nodes":[
				0,
				1,
				2,
				3,
				4,
				5,
				6
			]
		}
	],
	"nodes":[
		{
			"mesh":0,
			"name":"tail",
			"rotation":[
				0.011541021056473255,
				-0.013045365922152996,
				0.03148623928427696,
				0.9993524551391602
			],
			"scale":[
				0.25,
				0.2499999850988388,
				1
			],
			"translation":[
				0,
				0.4999004006385803,
				-2
			]
		},
		{
			"mesh":1,
			"name":"eyeball",
			"scale":[
				0.05000000074505806,
				0.05000000074505806,
				0.05000000074505806
			],
			"translation":[
				-0.15000000596046448,
				0.4999004006385803,
				1.5
			]
		},
		{
			"mesh":2,
			"name":"body",
			"scale":[
				0.4000000059604645,
				0.25,
				1
			],
			"translation":[
				0,
				0.4999004006385803,
				0
			]
		},
		{
			"mesh":3,
			"name":"foot",
			"scale":[
				0.10000000149011612,
				0.10000000149011612,
				0.10000000149011612
			],
			"translation":[
				0.22298356890678406,
				0.11383408308029175,
				0.800000011920929
			]
		},
		{
			"mesh":4,
			"name":"foot.001",
			"scale":[
				0.10000000149011612,
				0.10000000149011612,
				0.10000000149011612
			],
			"translation":[
				-0.2252030372619629,
				0.11383408308029175,
				0.800000011920929
			]
		},
		{
			"mesh":5,
			"name":"foot.002",
			"scale":[
				0.10000000149011612,
				0.10000000149011612,
				0.10000000149011612
			],
			"translation":[
				0.22298356890678406,
				0.11383408308029175,
				-0.6000000238418579
			]
		},
		{
			"mesh":6,
			"name":"foot.003",
			"scale":[
				0.10000000149011612,
				0.10000000149011612,
				0.10000000149011612
			],
			"translation":[
				-0.23835419118404388,
				0.11383408308029175,
				-0.6000000238418579
			]
		}
	],
	"animations":[
		{
			"channels":[
				{
					"sampler":0,
					"target":{
						"node":0,
						"path":"translation"
					}
				},
				{
					"sampler":1,
					"target":{
						"node":0,
						"path":"rotation"
					}
				},
				{
					"sampler":2,
					"target":{
						"node":1,
						"path":"translation"
					}
				},
				{
					"sampler":3,
					"target":{
						"node":1,
						"path":"rotation"
					}
				},
				{
					"sampler":4,
					"target":{
						"node":2,
						"path":"translation"
					}
				},
				{
					"sampler":5,
					"target":{
						"node":2,
						"path":"rotation"
					}
				},
				{
					"sampler":6,
					"target":{
						"node":3,
						"path":"translation"
					}
				},
				{
					"sampler":7,
					"target":{
						"node":3,
						"path":"rotation"
					}
				},
				{
					"sampler":8,
					"target":{
						"node":4,
						"path":"translation"
					}
				},
				{
					"sampler":9,
					"target":{
						"node":4,
						"path":"rotation"
					}
				},
				{
					"sampler":10,
					"target":{
						"node":5,
						"path":"translation"
					}
				},
				{
					"sampler":11,
					"target":{
						"node":5,
						"path":"rotation"
					}
				},
				{
					"sampler":12,
					"target":{
						"node":6,
						"path":"translation"
					}
				},
				{
					"sampler":13,
					"target":{
						"node":6,
						"path":"rotation"
					}
				}
			],
			"name":"walking",
			"samplers":[
				{
					"input":25,
					"interpolation":"LINEAR",
					"output":26
				},
				{
					"input":25,
					"interpolation":"LINEAR",
					"output":27
				},
				{
					"input":28,
					"interpolation":"STEP",
					"output":29
				},
				{
					"input":28,
					"interpolation":"STEP",
					"output":30
				},
				{
					"input":28,
					"interpolation":"STEP",
					"output":31
				},
				{
					"input":28,
					"interpolation":"STEP",
					"output":32
				},
				{
					"input":25,
					"interpolation":"LINEAR",
					"output":33
				},
				{
					"input":28,
					"interpolation":"STEP",
					"output":34
				},
				{
					"input":25,
					"interpolation":"LINEAR",
					"output":35
				},
				{
					"input":28,
					"interpolation":"STEP",
					"output":36
				},
				{
					"input":25,
					"interpolation":"LINEAR",
					"output":37
				},
				{
					"input":28,
					"interpolation":"STEP",
					"output":38
				},
				{
					"input":25,
					"interpolation":"LINEAR",
					"output":39
				},
				{
					"input":28,
					"interpolation":"STEP",
					"output":40
				}
			]
		},
		{
			"channels":[
				{
					"sampler":0,
					"target":{
						"node":3,
						"path":"translation"
					}
				}
			],
			"name":"Action",
			"samplers":[
				{
					"input":41,
					"interpolation":"STEP",
					"output":42
				}
			]
		}
	],
	"materials":[
		{
			"doubleSided":true,
			"name":"Material.003",
			"pbrMetallicRoughness":{
				"baseColorFactor":[
					0.800000011920929,
					0.800000011920929,
					0.800000011920929,
					1
				],
				"metallicFactor":0,
				"roughnessFactor":0.5
			}
		},
		{
			"doubleSided":true,
			"name":"Material.002",
			"pbrMetallicRoughness":{
				"baseColorFactor":[
					0.800000011920929,
					0.800000011920929,
					0.800000011920929,
					1
				],
				"metallicFactor":0,
				"roughnessFactor":0.5
			}
		},
		{
			"doubleSided":true,
			"name":"Material",
			"pbrMetallicRoughness":{
				"baseColorFactor":[
					0.800000011920929,
					0.800000011920929,
					0.800000011920929,
					1
				],
				"metallicFactor":0,
				"roughnessFactor":0.5
			}
		}
	],
	"meshes":[
		{
			"name":"Cube.003",
			"primitives":[
				{
					"attributes":{
						"POSITION":0,
						"NORMAL":1,
						"TEXCOORD_0":2
					},
					"indices":3,
					"material":0
				}
			]
		},
		{
			"name":"Sphere",
			"primitives":[
				{
					"attributes":{
						"POSITION":4,
						"NORMAL":5,
						"TEXCOORD_0":6
					},
					"indices":7,
					"material":1
				}
			]
		},
		{
			"name":"Cube",
			"primitives":[
				{
					"attributes":{
						"POSITION":8,
						"NORMAL":9,
						"TEXCOORD_0":10
					},
					"indices":11,
					"material":2
				}
			]
		},
		{
			"name":"Cube.001",
			"primitives":[
				{
					"attributes":{
						"POSITION":12,
						"NORMAL":13,
						"TEXCOORD_0":14
					},
					"indices":15
				}
			]
		},
		{
			"name":"Cube.004",
			"primitives":[
				{
					"attributes":{
						"POSITION":16,
						"NORMAL":17,
						"TEXCOORD_0":18
					},
					"indices":15
				}
			]
		},
		{
			"name":"Cube.005",
			"primitives":[
				{
					"attributes":{
						"POSITION":19,
						"NORMAL":20,
						"TEXCOORD_0":21
					},
					"indices":15
				}
			]
		},
		{
			"name":"Cube.006",
			"primitives":[
				{
					"attributes":{
						"POSITION":22,
						"NORMAL":23,
						"TEXCOORD_0":24
					},
					"indices":15
				}
			]
		}
	],
	"accessors":[
		{
			"bufferView":0,
			"componentType":5126,
			"count":87,
			"max":[
				1.0100648403167725,
				1,
				1
			],
			"min":[
				-1.0100648403167725,
				-1,
				-1.2502686977386475
			],
			"type":"VEC3"
		},
		{
			"bufferView":1,
			"componentType":5126,
			"count":87,
			"type":"VEC3"
		},
		{
			"bufferView":2,
			"componentType":5126,
			"count":87,
			"type":"VEC2"
		},
		{
			"bufferView":3,
			"componentType":5123,
			"count":129,
			"type":"SCALAR"
		},
		{
			"bufferView":4,
			"componentType":5126,
			"count":4028,
			"max":[
				8,
				5.929344177246094,
				15.412248611450195
			],
			"min":[
				-2,
				-7.432520866394043,
				-10.113673210144043
			],
			"type":"VEC3"
		},
		{
			"bufferView":5,
			"componentType":5126,
			"count":4028,
			"type":"VEC3"
		},
		{
			"bufferView":6,
			"componentType":5126,
			"count":4028,
			"type":"VEC2"
		},
		{
			"bufferView":7,
			"componentType":5123,
			"count":5856,
			"type":"SCALAR"
		},
		{
			"bufferView":8,
			"componentType":5126,
			"count":32,
			"max":[
				1,
				1,
				1
			],
			"min":[
				-1,
				-1,
				-1
			],
			"type":"VEC3"
		},
		{
			"bufferView":9,
			"componentType":5126,
			"count":32,
			"type":"VEC3"
		},
		{
			"bufferView":10,
			"componentType":5126,
			"count":32,
			"type":"VEC2"
		},
		{
			"bufferView":11,
			"componentType":5123,
			"count":60,
			"type":"SCALAR"
		},
		{
			"bufferView":12,
			"componentType":5126,
			"count":96,
			"max":[
				1,
				1,
				1
			],
			"min":[
				-1,
				-1,
				-1
			],
			"type":"VEC3"
		},
		{
			"bufferView":13,
			"componentType":5126,
			"count":96,
			"type":"VEC3"
		},
		{
			"bufferView":14,
			"componentType":5126,
			"count":96,
			"type":"VEC2"
		},
		{
			"bufferView":15,
			"componentType":5123,
			"count":144,
			"type":"SCALAR"
		},
		{
			"bufferView":16,
			"componentType":5126,
			"count":96,
			"max":[
				1,
				1,
				1
			],
			"min":[
				-1,
				-1,
				-1
			],
			"type":"VEC3"
		},
		{
			"bufferView":17,
			"componentType":5126,
			"count":96,
			"type":"VEC3"
		},
		{
			"bufferView":18,
			"componentType":5126,
			"count":96,
			"type":"VEC2"
		},
		{
			"bufferView":19,
			"componentType":5126,
			"count":96,
			"max":[
				1,
				1,
				1
			],
			"min":[
				-1,
				-1,
				-1
			],
			"type":"VEC3"
		},
		{
			"bufferView":20,
			"componentType":5126,
			"count":96,
			"type":"VEC3"
		},
		{
			"bufferView":21,
			"componentType":5126,
			"count":96,
			"type":"VEC2"
		},
		{
			"bufferView":22,
			"componentType":5126,
			"count":96,
			"max":[
				1,
				1,
				1
			],
			"min":[
				-1,
				-1,
				-1
			],
			"type":"VEC3"
		},
		{
			"bufferView":23,
			"componentType":5126,
			"count":96,
			"type":"VEC3"
		},
		{
			"bufferView":24,
			"componentType":5126,
			"count":96,
			"type":"VEC2"
		},
		{
			"bufferView":25,
			"componentType":5126,
			"count":61,
			"max":[
				2.5
			],
			"min":[
				0
			],
			"type":"SCALAR"
		},
		{
			"bufferView":26,
			"componentType":5126,
			"count":61,
			"type":"VEC3"
		},
		{
			"bufferView":27,
			"componentType":5126,
			"count":61,
			"type":"VEC4"
		},
		{
			"bufferView":28,
			"componentType":5126,
			"count":2,
			"max":[
				2.5
			],
			"min":[
				0
			],
			"type":"SCALAR"
		},
		{
			"bufferView":29,
			"componentType":5126,
			"count":2,
			"type":"VEC3"
		},
		{
			"bufferView":30,
			"componentType":5126,
			"count":2,
			"type":"VEC4"
		},
		{
			"bufferView":31,
			"componentType":5126,
			"count":2,
			"type":"VEC3"
		},
		{
			"bufferView":32,
			"componentType":5126,
			"count":2,
			"type":"VEC4"
		},
		{
			"bufferView":33,
			"componentType":5126,
			"count":61,
			"type":"VEC3"
		},
		{
			"bufferView":34,
			"componentType":5126,
			"count":2,
			"type":"VEC4"
		},
		{
			"bufferView":35,
			"componentType":5126,
			"count":61,
			"type":"VEC3"
		},
		{
			"bufferView":36,
			"componentType":5126,
			"count":2,
			"type":"VEC4"
		},
		{
			"bufferView":37,
			"componentType":5126,
			"count":61,
			"type":"VEC3"
		},
		{
			"bufferView":38,
			"componentType":5126,
			"count":2,
			"type":"VEC4"
		},
		{
			"bufferView":39,
			"componentType":5126,
			"count":61,
			"type":"VEC3"
		},
		{
			"bufferView":40,
			"componentType":5126,
			"count":2,
			"type":"VEC4"
		},
		{
			"bufferView":41,
			"componentType":5126,
			"count":2,
			"max":[
				0.041666666666666664
			],
			"min":[
				0
			],
			"type":"SCALAR"
		},
		{
			"bufferView":42,
			"componentType":5126,
			"count":2,
			"type":"VEC3"
		}
	],
	"bufferViews":[
		{
			"buffer":0,
			"byteLength":1044,
			"byteOffset":0,
			"target":34962
		},
		{
			"buffer":0,
			"byteLength":1044,
			"byteOffset":1044,
			"target":34962
		},
		{
			"buffer":0,
			"byteLength":696,
			"byteOffset":2088,
			"target":34962
		},
		{
			"buffer":0,
			"byteLength":258,
			"byteOffset":2784,
			"target":34963
		},
		{
			"buffer":0,
			"byteLength":48336,
			"byteOffset":3044,
			"target":34962
		},
		{
			"buffer":0,
			"byteLength":48336,
			"byteOffset":51380,
			"target":34962
		},
		{
			"buffer":0,
			"byteLength":32224,
			"byteOffset":99716,
			"target":34962
		},
		{
			"buffer":0,
			"byteLength":11712,
			"byteOffset":131940,
			"target":34963
		},
		{
			"buffer":0,
			"byteLength":384,
			"byteOffset":143652,
			"target":34962
		},
		{
			"buffer":0,
			"byteLength":384,
			"byteOffset":144036,
			"target":34962
		},
		{
			"buffer":0,
			"byteLength":256,
			"byteOffset":144420,
			"target":34962
		},
		{
			"buffer":0,
			"byteLength":120,
			"byteOffset":144676,
			"target":34963
		},
		{
			"buffer":0,
			"byteLength":1152,
			"byteOffset":144796,
			"target":34962
		},
		{
			"buffer":0,
			"byteLength":1152,
			"byteOffset":145948,
			"target":34962
		},
		{
			"buffer":0,
			"byteLength":768,
			"byteOffset":147100,
			"target":34962
		},
		{
			"buffer":0,
			"byteLength":288,
			"byteOffset":147868,
			"target":34963
		},
		{
			"buffer":0,
			"byteLength":1152,
			"byteOffset":148156,
			"target":34962
		},
		{
			"buffer":0,
			"byteLength":1152,
			"byteOffset":149308,
			"target":34962
		},
		{
			"buffer":0,
			"byteLength":768,
			"byteOffset":150460,
			"target":34962
		},
		{
			"buffer":0,
			"byteLength":1152,
			"byteOffset":151228,
			"target":34962
		},
		{
			"buffer":0,
			"byteLength":1152,
			"byteOffset":152380,
			"target":34962
		},
		{
			"buffer":0,
			"byteLength":768,
			"byteOffset":153532,
			"target":34962
		},
		{
			"buffer":0,
			"byteLength":1152,
			"byteOffset":154300,
			"target":34962
		},
		{
			"buffer":0,
			"byteLength":1152,
			"byteOffset":155452,
			"target":34962
		},
		{
			"buffer":0,
			"byteLength":768,
			"byteOffset":156604,
			"target":34962
		},
		{
			"buffer":0,
			"byteLength":244,
			"byteOffset":157372
		},
		{
			"buffer":0,
			"byteLength":732,
			"byteOffset":157616
		},
		{
			"buffer":0,
			"byteLength":976,
			"byteOffset":158348
		},
		{
			"buffer":0,
			"byteLength":8,
			"byteOffset":159324
		},
		{
			"buffer":0,
			"byteLength":24,
			"byteOffset":159332
		},
		{
			"buffer":0,
			"byteLength":32,
			"byteOffset":159356
		},
		{
			"buffer":0,
			"byteLength":24,
			"byteOffset":159388
		},
		{
			"buffer":0,
			"byteLength":32,
			"byteOffset":159412
		},
		{
			"buffer":0,
			"byteLength":732,
			"byteOffset":159444
		},
		{
			"buffer":0,
			"byteLength":32,
			"byteOffset":160176
		},
		{
			"buffer":0,
			"byteLength":732,
			"byteOffset":160208
		},
		{
			"buffer":0,
			"byteLength":32,
			"byteOffset":160940
		},
		{
			"buffer":0,
			"byteLength":732,
			"byteOffset":160972
		},
		{
			"buffer":0,
			"byteLength":32,
			"byteOffset":161704
		},
		{
			"buffer":0,
			"byteLength":732,
			"byteOffset":161736
		},
		{
			"buffer":0,
			"byteLength":32,
			"byteOffset":162468
		},
		{
			"buffer":0,
			"byteLength":8,
			"byteOffset":162500
		},
		{
			"buffer":0,
			"byteLength":24,
			"byteOffset":162508
		}
	],
	"buffers":[
		{
			"byteLength":162532,
			"uri":"data:application/octet-stream;base64,"
		}
	]
}
