# Blender v3.2.2 OBJ File: 'mesh-cube-lower.blend'
# www.blender.org
mtllib mesh-cube-lower.mtl
o Cube
v 0.250000 0.250000 -0.250000
v 0.250000 -0.250000 -0.250000
v 0.250000 0.250000 0.250000
v 0.250000 -0.250000 0.250000
v -0.250000 0.250000 -0.250000
v -0.250000 -0.250000 -0.250000
v -0.250000 0.250000 0.250000
v -0.250000 -0.250000 0.250000
vt 0.006506 0.002505
vt 0.502828 0.002505
vt 0.502828 0.498828
vt 0.006506 0.498828
vt 0.849333 0.587333
vt 0.849333 0.920667
vt 0.516000 0.920667
vt 0.516000 0.587333
vt 0.984667 0.541000
vt 0.984667 0.874333
vt 0.651333 0.874333
vt 0.651333 0.541000
vt 0.547333 0.151333
vt 0.880667 0.151333
vt 0.880667 0.484667
vt 0.547333 0.484667
vt 0.903333 0.595667
vt 0.903333 0.929000
vt 0.570000 0.929000
vt 0.570000 0.595667
vt 0.860000 0.656000
vt 0.860000 0.989333
vt 0.526667 0.989333
vt 0.526667 0.656000
vn 0.0000 1.0000 0.0000
vn 0.0000 0.0000 1.0000
vn -1.0000 0.0000 0.0000
vn 0.0000 -1.0000 0.0000
vn 1.0000 0.0000 0.0000
vn 0.0000 0.0000 -1.0000
usemtl mesh-block-material
s off
f 1/1/1 5/2/1 7/3/1 3/4/1
f 4/5/2 3/6/2 7/7/2 8/8/2
f 8/9/3 7/10/3 5/11/3 6/12/3
f 6/13/4 2/14/4 4/15/4 8/16/4
f 2/17/5 1/18/5 3/19/5 4/20/5
f 6/21/6 5/22/6 1/23/6 2/24/6
