# Blender v3.2.2 OBJ File: 'mesh-cube.blend'
# www.blender.org
mtllib mesh-cube-upper.mtl
o Cube
v 0.250000 0.250000 -0.250000
v 0.250000 -0.250000 -0.250000
v 0.250000 0.250000 0.250000
v 0.250000 -0.250000 0.250000
v -0.250000 0.250000 -0.250000
v -0.250000 -0.250000 -0.250000
v -0.250000 0.250000 0.250000
v -0.250000 -0.250000 0.250000
vt 0.125000 0.625000
vt 0.458333 0.625000
vt 0.458333 0.958333
vt 0.125000 0.958333
vt 0.833333 0.583333
vt 0.833333 0.916667
vt 0.500000 0.916667
vt 0.500000 0.583333
vt 0.916667 0.500000
vt 0.916667 0.833333
vt 0.583333 0.833333
vt 0.583333 0.500000
vt 0.669333 0.665333
vt 1.002667 0.665333
vt 1.002667 0.998667
vt 0.669333 0.998667
vt 0.958333 0.541667
vt 0.958333 0.875000
vt 0.625000 0.875000
vt 0.625000 0.541667
vt 1.000000 0.500000
vt 1.000000 0.833333
vt 0.666667 0.833333
vt 0.666667 0.500000
vn 0.0000 1.0000 0.0000
vn 0.0000 0.0000 1.0000
vn -1.0000 0.0000 0.0000
vn 0.0000 -1.0000 0.0000
vn 1.0000 0.0000 0.0000
vn 0.0000 0.0000 -1.0000
usemtl mesh-block-material
s off
f 1/1/1 5/2/1 7/3/1 3/4/1
f 4/5/2 3/6/2 7/7/2 8/8/2
f 8/9/3 7/10/3 5/11/3 6/12/3
f 6/13/4 2/14/4 4/15/4 8/16/4
f 2/17/5 1/18/5 3/19/5 4/20/5
f 6/21/6 5/22/6 1/23/6 2/24/6
