{
    "asset" : {
        "generator" : "Khronos glTF Blender I/O v3.4.50",
        "version" : "2.0"
    },
    "scene" : 0,
    "scenes" : [
        {
            "name" : "Scene",
            "nodes" : [
                0
            ]
        }
    ],
    "nodes" : [
        {
            "mesh" : 0,
            "name" : "Sphere",
            "rotation" : [
                0,
                0,
                -0.13052619993686676,
                0.9914448857307434
            ]
        }
    ],
    "animations" : [
        {
            "channels" : [
                {
                    "sampler" : 0,
                    "target" : {
                        "node" : 0,
                        "path" : "translation"
                    }
                },
                {
                    "sampler" : 1,
                    "target" : {
                        "node" : 0,
                        "path" : "rotation"
                    }
                }
            ],
            "name" : "SphereAction",
            "samplers" : [
                {
                    "input" : 4,
                    "interpolation" : "LINEAR",
                    "output" : 5
                },
                {
                    "input" : 4,
                    "interpolation" : "LINEAR",
                    "output" : 6
                }
            ]
        }
    ],
    "meshes" : [
        {
            "name" : "Sphere",
            "primitives" : [
                {
                    "attributes" : {
                        "POSITION" : 0,
                        "TEXCOORD_0" : 1,
                        "NORMAL" : 2
                    },
                    "indices" : 3
                }
            ]
        }
    ],
    "accessors" : [
        {
            "bufferView" : 0,
            "componentType" : 5126,
            "count" : 2176,
            "max" : [
                1.5,
                1,
                1.75
            ],
            "min" : [
                -1.5,
                -1,
                -1.75
            ],
            "type" : "VEC3"
        },
        {
            "bufferView" : 1,
            "componentType" : 5126,
            "count" : 2176,
            "type" : "VEC2"
        },
        {
            "bufferView" : 2,
            "componentType" : 5126,
            "count" : 2176,
            "type" : "VEC3"
        },
        {
            "bufferView" : 3,
            "componentType" : 5123,
            "count" : 3252,
            "type" : "SCALAR"
        },
        {
            "bufferView" : 4,
            "componentType" : 5126,
            "count" : 31,
            "max" : [
                1.25
            ],
            "min" : [
                0
            ],
            "type" : "SCALAR"
        },
        {
            "bufferView" : 5,
            "componentType" : 5126,
            "count" : 31,
            "type" : "VEC3"
        },
        {
            "bufferView" : 6,
            "componentType" : 5126,
            "count" : 31,
            "type" : "VEC4"
        }
    ],
    "bufferViews" : [
        {
            "buffer" : 0,
            "byteLength" : 26112,
            "byteOffset" : 0,
            "target" : 34962
        },
        {
            "buffer" : 0,
            "byteLength" : 17408,
            "byteOffset" : 26112,
            "target" : 34962
        },
        {
            "buffer" : 0,
            "byteLength" : 26112,
            "byteOffset" : 43520,
            "target" : 34962
        },
        {
            "buffer" : 0,
            "byteLength" : 6504,
            "byteOffset" : 69632,
            "target" : 34963
        },
        {
            "buffer" : 0,
            "byteLength" : 124,
            "byteOffset" : 76136
        },
        {
            "buffer" : 0,
            "byteLength" : 372,
            "byteOffset" : 76260
        },
        {
            "buffer" : 0,
            "byteLength" : 496,
            "byteOffset" : 76632
        }
    ],
    "buffers" : [
        {
            "byteLength" : 77128,
            "uri" : "data:application/octet-stream;base64,"
        }
    ]
}
