{
	"asset":{
		"generator":"Khronos glTF Blender I/O v3.6.27",
		"version":"2.0"
	},
	"scene":0,
	"scenes":[
		{
			"name":"Scene",
			"nodes":[
				0
			]
		}
	],
	"nodes":[
		{
			"mesh":0,
			"name":"eyeball",
			"scale":[
				0.05000000074505806,
				0.05000000074505806,
				0.05000000074505806
			],
			"translation":[
				-0.15000000596046448,
				3.0239884853363037,
				0.32209205627441406
			]
		}
	],
	"animations":[
		{
			"channels":[
				{
					"sampler":0,
					"target":{
						"node":0,
						"path":"translation"
					}
				},
				{
					"sampler":1,
					"target":{
						"node":0,
						"path":"rotation"
					}
				},
				{
					"sampler":2,
					"target":{
						"node":0,
						"path":"scale"
					}
				}
			],
			"name":"Action",
			"samplers":[
				{
					"input":12,
					"interpolation":"LINEAR",
					"output":13
				},
				{
					"input":12,
					"interpolation":"LINEAR",
					"output":14
				},
				{
					"input":12,
					"interpolation":"LINEAR",
					"output":15
				}
			]
		}
	],
	"materials":[
		{
			"doubleSided":true,
			"name":"Material.002",
			"pbrMetallicRoughness":{
				"baseColorFactor":[
					0.800000011920929,
					0.800000011920929,
					0.800000011920929,
					1
				],
				"metallicFactor":0,
				"roughnessFactor":0.5
			}
		},
		{
			"doubleSided":true,
			"name":"Material.003",
			"pbrMetallicRoughness":{
				"baseColorFactor":[
					0.800000011920929,
					0.800000011920929,
					0.800000011920929,
					1
				],
				"metallicFactor":0,
				"roughnessFactor":0.5
			}
		},
		{
			"doubleSided":true,
			"name":"Material",
			"pbrMetallicRoughness":{
				"baseColorFactor":[
					0.800000011920929,
					0.800000011920929,
					0.800000011920929,
					1
				],
				"metallicFactor":0,
				"roughnessFactor":0.5
			}
		}
	],
	"meshes":[
		{
			"name":"Sphere",
			"primitives":[
				{
					"attributes":{
						"POSITION":0,
						"NORMAL":1,
						"TEXCOORD_0":2
					},
					"indices":3,
					"material":0
				},
				{
					"attributes":{
						"POSITION":4,
						"NORMAL":5,
						"TEXCOORD_0":6
					},
					"indices":7,
					"material":1
				},
				{
					"attributes":{
						"POSITION":8,
						"NORMAL":9,
						"TEXCOORD_0":10
					},
					"indices":11,
					"material":2
				}
			]
		}
	],
	"accessors":[
		{
			"bufferView":0,
			"componentType":5126,
			"count":4028,
			"max":[
				8,
				5.929344177246094,
				15.412248611450195
			],
			"min":[
				-2,
				-7.432520866394043,
				-10.113673210144043
			],
			"type":"VEC3"
		},
		{
			"bufferView":1,
			"componentType":5126,
			"count":4028,
			"type":"VEC3"
		},
		{
			"bufferView":2,
			"componentType":5126,
			"count":4028,
			"type":"VEC2"
		},
		{
			"bufferView":3,
			"componentType":5123,
			"count":5856,
			"type":"SCALAR"
		},
		{
			"bufferView":4,
			"componentType":5126,
			"count":87,
			"max":[
				8.050324440002441,
				-45.48176193237305,
				-7.210691452026367
			],
			"min":[
				-2.0503244400024414,
				-55.48176193237305,
				-52.216064453125
			],
			"type":"VEC3"
		},
		{
			"bufferView":5,
			"componentType":5126,
			"count":87,
			"type":"VEC3"
		},
		{
			"bufferView":6,
			"componentType":5126,
			"count":87,
			"type":"VEC2"
		},
		{
			"bufferView":7,
			"componentType":5123,
			"count":129,
			"type":"SCALAR"
		},
		{
			"bufferView":8,
			"componentType":5126,
			"count":416,
			"max":[
				11,
				-5.11033821105957,
				-0.9913797378540039
			],
			"min":[
				-5,
				-45.29047393798828,
				-16.361278533935547
			],
			"type":"VEC3"
		},
		{
			"bufferView":9,
			"componentType":5126,
			"count":416,
			"type":"VEC3"
		},
		{
			"bufferView":10,
			"componentType":5126,
			"count":416,
			"type":"VEC2"
		},
		{
			"bufferView":11,
			"componentType":5123,
			"count":636,
			"type":"SCALAR"
		},
		{
			"bufferView":12,
			"componentType":5126,
			"count":1,
			"max":[
				0
			],
			"min":[
				0
			],
			"type":"SCALAR"
		},
		{
			"bufferView":13,
			"componentType":5126,
			"count":1,
			"type":"VEC3"
		},
		{
			"bufferView":14,
			"componentType":5126,
			"count":1,
			"type":"VEC4"
		},
		{
			"bufferView":15,
			"componentType":5126,
			"count":1,
			"type":"VEC3"
		}
	],
	"bufferViews":[
		{
			"buffer":0,
			"byteLength":48336,
			"byteOffset":0,
			"target":34962
		},
		{
			"buffer":0,
			"byteLength":48336,
			"byteOffset":48336,
			"target":34962
		},
		{
			"buffer":0,
			"byteLength":32224,
			"byteOffset":96672,
			"target":34962
		},
		{
			"buffer":0,
			"byteLength":11712,
			"byteOffset":128896,
			"target":34963
		},
		{
			"buffer":0,
			"byteLength":1044,
			"byteOffset":140608,
			"target":34962
		},
		{
			"buffer":0,
			"byteLength":1044,
			"byteOffset":141652,
			"target":34962
		},
		{
			"buffer":0,
			"byteLength":696,
			"byteOffset":142696,
			"target":34962
		},
		{
			"buffer":0,
			"byteLength":258,
			"byteOffset":143392,
			"target":34963
		},
		{
			"buffer":0,
			"byteLength":4992,
			"byteOffset":143652,
			"target":34962
		},
		{
			"buffer":0,
			"byteLength":4992,
			"byteOffset":148644,
			"target":34962
		},
		{
			"buffer":0,
			"byteLength":3328,
			"byteOffset":153636,
			"target":34962
		},
		{
			"buffer":0,
			"byteLength":1272,
			"byteOffset":156964,
			"target":34963
		},
		{
			"buffer":0,
			"byteLength":4,
			"byteOffset":158236
		},
		{
			"buffer":0,
			"byteLength":12,
			"byteOffset":158240
		},
		{
			"buffer":0,
			"byteLength":16,
			"byteOffset":158252
		},
		{
			"buffer":0,
			"byteLength":12,
			"byteOffset":158268
		}
	],
	"buffers":[
		{
			"byteLength":158280,
			"uri":"data:application/octet-stream;base64,"
		}
	]
}
