{
	"asset":{
		"generator":"Khronos glTF Blender I/O v3.6.27",
		"version":"2.0"
	},
	"scene":0,
	"scenes":[
		{
			"name":"Scene",
			"nodes":[
				0,
				1,
				2,
				3,
				4,
				5,
				6,
				7
			]
		}
	],
	"nodes":[
		{
			"mesh":0,
			"name":"tail",
			"scale":[
				0.25,
				0.25,
				1
			],
			"translation":[
				0,
				0,
				-1.0116910934448242
			]
		},
		{
			"mesh":1,
			"name":"head",
			"scale":[
				0.25,
				0.25,
				1
			],
			"translation":[
				0,
				2.5236356258392334,
				0.6595771312713623
			]
		},
		{
			"mesh":2,
			"name":"eyeball",
			"scale":[
				0.05000000074505806,
				0.05000000074505806,
				0.05000000074505806
			],
			"translation":[
				-0.15000000596046448,
				2.5236356258392334,
				0.1595771312713623
			]
		},
		{
			"mesh":3,
			"name":"foot",
			"rotation":[
				-0.7067404985427856,
				0,
				0,
				0.7074729204177856
			],
			"scale":[
				0.10000000149011612,
				0.10000000149011612,
				0.10000000149011612
			],
			"translation":[
				0.22298356890678406,
				2.106733798980713,
				0.14029502868652344
			]
		},
		{
			"mesh":4,
			"name":"foot.001",
			"rotation":[
				-0.7067404985427856,
				0,
				0,
				0.7074729204177856
			],
			"scale":[
				0.10000000149011612,
				0.10000000149011612,
				0.10000000149011612
			],
			"translation":[
				-0.2252030372619629,
				2.11362886428833,
				0.14030218124389648
			]
		},
		{
			"mesh":5,
			"name":"foot.002",
			"rotation":[
				-0.7067404985427856,
				0,
				0,
				0.7074729204177856
			],
			"scale":[
				0.10000000149011612,
				0.10000000149011612,
				0.10000000149011612
			],
			"translation":[
				0.22298356890678406,
				0.5897954702377319,
				0.13872367143630981
			]
		},
		{
			"mesh":6,
			"name":"foot.003",
			"rotation":[
				-0.7067404985427856,
				0,
				0,
				0.7074729204177856
			],
			"scale":[
				0.10000000149011612,
				0.10000000149011612,
				0.10000000149011612
			],
			"translation":[
				-0.23835419118404388,
				0.5897954702377319,
				0.13872367143630981
			]
		},
		{
			"mesh":7,
			"name":"body",
			"rotation":[
				-0.7067404985427856,
				0,
				0,
				0.7074729204177856
			],
			"scale":[
				0.4000000059604645,
				0.25,
				1
			],
			"translation":[
				0,
				1.272536039352417,
				-0.24663560092449188
			]
		}
	],
	"animations":[
		{
			"channels":[
				{
					"sampler":0,
					"target":{
						"node":1,
						"path":"translation"
					}
				},
				{
					"sampler":1,
					"target":{
						"node":1,
						"path":"rotation"
					}
				},
				{
					"sampler":2,
					"target":{
						"node":1,
						"path":"scale"
					}
				}
			],
			"name":"headAction",
			"samplers":[
				{
					"input":29,
					"interpolation":"LINEAR",
					"output":30
				},
				{
					"input":29,
					"interpolation":"LINEAR",
					"output":31
				},
				{
					"input":29,
					"interpolation":"LINEAR",
					"output":32
				}
			]
		},
		{
			"channels":[
				{
					"sampler":0,
					"target":{
						"node":2,
						"path":"translation"
					}
				},
				{
					"sampler":1,
					"target":{
						"node":2,
						"path":"rotation"
					}
				},
				{
					"sampler":2,
					"target":{
						"node":2,
						"path":"scale"
					}
				}
			],
			"name":"eyeballAction",
			"samplers":[
				{
					"input":29,
					"interpolation":"LINEAR",
					"output":33
				},
				{
					"input":29,
					"interpolation":"LINEAR",
					"output":34
				},
				{
					"input":29,
					"interpolation":"LINEAR",
					"output":35
				}
			]
		}
	],
	"materials":[
		{
			"doubleSided":true,
			"name":"Material.003",
			"pbrMetallicRoughness":{
				"baseColorFactor":[
					0.800000011920929,
					0.800000011920929,
					0.800000011920929,
					1
				],
				"metallicFactor":0,
				"roughnessFactor":0.5
			}
		},
		{
			"doubleSided":true,
			"name":"Material.002",
			"pbrMetallicRoughness":{
				"baseColorFactor":[
					0.800000011920929,
					0.800000011920929,
					0.800000011920929,
					1
				],
				"metallicFactor":0,
				"roughnessFactor":0.5
			}
		},
		{
			"doubleSided":true,
			"name":"Material",
			"pbrMetallicRoughness":{
				"baseColorFactor":[
					0.800000011920929,
					0.800000011920929,
					0.800000011920929,
					1
				],
				"metallicFactor":0,
				"roughnessFactor":0.5
			}
		}
	],
	"meshes":[
		{
			"name":"Cube.003",
			"primitives":[
				{
					"attributes":{
						"POSITION":0,
						"NORMAL":1,
						"TEXCOORD_0":2
					},
					"indices":3,
					"material":0
				}
			]
		},
		{
			"name":"Cube.002",
			"primitives":[
				{
					"attributes":{
						"POSITION":4,
						"NORMAL":5,
						"TEXCOORD_0":6
					},
					"indices":7,
					"material":1
				}
			]
		},
		{
			"name":"Sphere",
			"primitives":[
				{
					"attributes":{
						"POSITION":8,
						"NORMAL":9,
						"TEXCOORD_0":10
					},
					"indices":11
				}
			]
		},
		{
			"name":"Cube.001",
			"primitives":[
				{
					"attributes":{
						"POSITION":12,
						"NORMAL":13,
						"TEXCOORD_0":14
					},
					"indices":15
				}
			]
		},
		{
			"name":"Cube.004",
			"primitives":[
				{
					"attributes":{
						"POSITION":16,
						"NORMAL":17,
						"TEXCOORD_0":18
					},
					"indices":15
				}
			]
		},
		{
			"name":"Cube.005",
			"primitives":[
				{
					"attributes":{
						"POSITION":19,
						"NORMAL":20,
						"TEXCOORD_0":21
					},
					"indices":15
				}
			]
		},
		{
			"name":"Cube.006",
			"primitives":[
				{
					"attributes":{
						"POSITION":22,
						"NORMAL":23,
						"TEXCOORD_0":24
					},
					"indices":15
				}
			]
		},
		{
			"name":"Cube",
			"primitives":[
				{
					"attributes":{
						"POSITION":25,
						"NORMAL":26,
						"TEXCOORD_0":27
					},
					"indices":28,
					"material":2
				}
			]
		}
	],
	"accessors":[
		{
			"bufferView":0,
			"componentType":5126,
			"count":52,
			"max":[
				0,
				1,
				1
			],
			"min":[
				-1.0100648403167725,
				-1,
				-1.2502686977386475
			],
			"type":"VEC3"
		},
		{
			"bufferView":1,
			"componentType":5126,
			"count":52,
			"type":"VEC3"
		},
		{
			"bufferView":2,
			"componentType":5126,
			"count":52,
			"type":"VEC2"
		},
		{
			"bufferView":3,
			"componentType":5123,
			"count":96,
			"type":"SCALAR"
		},
		{
			"bufferView":4,
			"componentType":5126,
			"count":16,
			"max":[
				0,
				1,
				0.2706124484539032
			],
			"min":[
				-1,
				-1,
				-1
			],
			"type":"VEC3"
		},
		{
			"bufferView":5,
			"componentType":5126,
			"count":16,
			"type":"VEC3"
		},
		{
			"bufferView":6,
			"componentType":5126,
			"count":16,
			"type":"VEC2"
		},
		{
			"bufferView":7,
			"componentType":5123,
			"count":24,
			"type":"SCALAR"
		},
		{
			"bufferView":8,
			"componentType":5126,
			"count":1984,
			"max":[
				0.9999997019767761,
				1,
				0.9999993443489075
			],
			"min":[
				-0.9999990463256836,
				-1,
				-1
			],
			"type":"VEC3"
		},
		{
			"bufferView":9,
			"componentType":5126,
			"count":1984,
			"type":"VEC3"
		},
		{
			"bufferView":10,
			"componentType":5126,
			"count":1984,
			"type":"VEC2"
		},
		{
			"bufferView":11,
			"componentType":5123,
			"count":2880,
			"type":"SCALAR"
		},
		{
			"bufferView":12,
			"componentType":5126,
			"count":24,
			"max":[
				1,
				1,
				1
			],
			"min":[
				-1,
				-1,
				-1
			],
			"type":"VEC3"
		},
		{
			"bufferView":13,
			"componentType":5126,
			"count":24,
			"type":"VEC3"
		},
		{
			"bufferView":14,
			"componentType":5126,
			"count":24,
			"type":"VEC2"
		},
		{
			"bufferView":15,
			"componentType":5123,
			"count":36,
			"type":"SCALAR"
		},
		{
			"bufferView":16,
			"componentType":5126,
			"count":24,
			"max":[
				1,
				1,
				1
			],
			"min":[
				-1,
				-1,
				-1
			],
			"type":"VEC3"
		},
		{
			"bufferView":17,
			"componentType":5126,
			"count":24,
			"type":"VEC3"
		},
		{
			"bufferView":18,
			"componentType":5126,
			"count":24,
			"type":"VEC2"
		},
		{
			"bufferView":19,
			"componentType":5126,
			"count":24,
			"max":[
				1,
				1,
				1
			],
			"min":[
				-1,
				-1,
				-1
			],
			"type":"VEC3"
		},
		{
			"bufferView":20,
			"componentType":5126,
			"count":24,
			"type":"VEC3"
		},
		{
			"bufferView":21,
			"componentType":5126,
			"count":24,
			"type":"VEC2"
		},
		{
			"bufferView":22,
			"componentType":5126,
			"count":24,
			"max":[
				1,
				1,
				1
			],
			"min":[
				-1,
				-1,
				-1
			],
			"type":"VEC3"
		},
		{
			"bufferView":23,
			"componentType":5126,
			"count":24,
			"type":"VEC3"
		},
		{
			"bufferView":24,
			"componentType":5126,
			"count":24,
			"type":"VEC2"
		},
		{
			"bufferView":25,
			"componentType":5126,
			"count":20,
			"max":[
				0,
				1,
				1
			],
			"min":[
				-1,
				-1,
				-1
			],
			"type":"VEC3"
		},
		{
			"bufferView":26,
			"componentType":5126,
			"count":20,
			"type":"VEC3"
		},
		{
			"bufferView":27,
			"componentType":5126,
			"count":20,
			"type":"VEC2"
		},
		{
			"bufferView":28,
			"componentType":5123,
			"count":30,
			"type":"SCALAR"
		},
		{
			"bufferView":29,
			"componentType":5126,
			"count":1,
			"max":[
				2.5
			],
			"min":[
				2.5
			],
			"type":"SCALAR"
		},
		{
			"bufferView":30,
			"componentType":5126,
			"count":1,
			"type":"VEC3"
		},
		{
			"bufferView":31,
			"componentType":5126,
			"count":1,
			"type":"VEC4"
		},
		{
			"bufferView":32,
			"componentType":5126,
			"count":1,
			"type":"VEC3"
		},
		{
			"bufferView":33,
			"componentType":5126,
			"count":1,
			"type":"VEC3"
		},
		{
			"bufferView":34,
			"componentType":5126,
			"count":1,
			"type":"VEC4"
		},
		{
			"bufferView":35,
			"componentType":5126,
			"count":1,
			"type":"VEC3"
		}
	],
	"bufferViews":[
		{
			"buffer":0,
			"byteLength":624,
			"byteOffset":0,
			"target":34962
		},
		{
			"buffer":0,
			"byteLength":624,
			"byteOffset":624,
			"target":34962
		},
		{
			"buffer":0,
			"byteLength":416,
			"byteOffset":1248,
			"target":34962
		},
		{
			"buffer":0,
			"byteLength":192,
			"byteOffset":1664,
			"target":34963
		},
		{
			"buffer":0,
			"byteLength":192,
			"byteOffset":1856,
			"target":34962
		},
		{
			"buffer":0,
			"byteLength":192,
			"byteOffset":2048,
			"target":34962
		},
		{
			"buffer":0,
			"byteLength":128,
			"byteOffset":2240,
			"target":34962
		},
		{
			"buffer":0,
			"byteLength":48,
			"byteOffset":2368,
			"target":34963
		},
		{
			"buffer":0,
			"byteLength":23808,
			"byteOffset":2416,
			"target":34962
		},
		{
			"buffer":0,
			"byteLength":23808,
			"byteOffset":26224,
			"target":34962
		},
		{
			"buffer":0,
			"byteLength":15872,
			"byteOffset":50032,
			"target":34962
		},
		{
			"buffer":0,
			"byteLength":5760,
			"byteOffset":65904,
			"target":34963
		},
		{
			"buffer":0,
			"byteLength":288,
			"byteOffset":71664,
			"target":34962
		},
		{
			"buffer":0,
			"byteLength":288,
			"byteOffset":71952,
			"target":34962
		},
		{
			"buffer":0,
			"byteLength":192,
			"byteOffset":72240,
			"target":34962
		},
		{
			"buffer":0,
			"byteLength":72,
			"byteOffset":72432,
			"target":34963
		},
		{
			"buffer":0,
			"byteLength":288,
			"byteOffset":72504,
			"target":34962
		},
		{
			"buffer":0,
			"byteLength":288,
			"byteOffset":72792,
			"target":34962
		},
		{
			"buffer":0,
			"byteLength":192,
			"byteOffset":73080,
			"target":34962
		},
		{
			"buffer":0,
			"byteLength":288,
			"byteOffset":73272,
			"target":34962
		},
		{
			"buffer":0,
			"byteLength":288,
			"byteOffset":73560,
			"target":34962
		},
		{
			"buffer":0,
			"byteLength":192,
			"byteOffset":73848,
			"target":34962
		},
		{
			"buffer":0,
			"byteLength":288,
			"byteOffset":74040,
			"target":34962
		},
		{
			"buffer":0,
			"byteLength":288,
			"byteOffset":74328,
			"target":34962
		},
		{
			"buffer":0,
			"byteLength":192,
			"byteOffset":74616,
			"target":34962
		},
		{
			"buffer":0,
			"byteLength":240,
			"byteOffset":74808,
			"target":34962
		},
		{
			"buffer":0,
			"byteLength":240,
			"byteOffset":75048,
			"target":34962
		},
		{
			"buffer":0,
			"byteLength":160,
			"byteOffset":75288,
			"target":34962
		},
		{
			"buffer":0,
			"byteLength":60,
			"byteOffset":75448,
			"target":34963
		},
		{
			"buffer":0,
			"byteLength":4,
			"byteOffset":75508
		},
		{
			"buffer":0,
			"byteLength":12,
			"byteOffset":75512
		},
		{
			"buffer":0,
			"byteLength":16,
			"byteOffset":75524
		},
		{
			"buffer":0,
			"byteLength":12,
			"byteOffset":75540
		},
		{
			"buffer":0,
			"byteLength":12,
			"byteOffset":75552
		},
		{
			"buffer":0,
			"byteLength":16,
			"byteOffset":75564
		},
		{
			"buffer":0,
			"byteLength":12,
			"byteOffset":75580
		}
	],
	"buffers":[
		{
			"byteLength":75592,
			"uri":"data:application/octet-stream;base64,"
		}
	]
}
