{
	"asset":{
		"generator":"Khronos glTF Blender I/O v3.6.27",
		"version":"2.0"
	},
	"scene":0,
	"scenes":[
		{
			"name":"Scene",
			"nodes":[
				0,
				1,
				2,
				3,
				4,
				5,
				6
			]
		}
	],
	"nodes":[
		{
			"mesh":0,
			"name":"tail"
		},
		{
			"mesh":1,
			"name":"foot.003"
		},
		{
			"mesh":2,
			"name":"foot.002",
			"translation":[
				0,
				0,
				0.20000000298023224
			]
		},
		{
			"mesh":3,
			"name":"foot.001",
			"translation":[
				0,
				0,
				-0.20000000298023224
			]
		},
		{
			"mesh":4,
			"name":"foot"
		},
		{
			"mesh":5,
			"name":"eyeball"
		},
		{
			"mesh":6,
			"name":"body"
		}
	],
	"animations":[
		{
			"channels":[
				{
					"sampler":0,
					"target":{
						"node":0,
						"path":"translation"
					}
				},
				{
					"sampler":1,
					"target":{
						"node":0,
						"path":"rotation"
					}
				},
				{
					"sampler":2,
					"target":{
						"node":0,
						"path":"scale"
					}
				},
				{
					"sampler":3,
					"target":{
						"node":6,
						"path":"translation"
					}
				},
				{
					"sampler":4,
					"target":{
						"node":6,
						"path":"rotation"
					}
				},
				{
					"sampler":5,
					"target":{
						"node":6,
						"path":"scale"
					}
				}
			],
			"name":"walk",
			"samplers":[
				{
					"input":25,
					"interpolation":"STEP",
					"output":26
				},
				{
					"input":27,
					"interpolation":"LINEAR",
					"output":28
				},
				{
					"input":25,
					"interpolation":"STEP",
					"output":29
				},
				{
					"input":27,
					"interpolation":"LINEAR",
					"output":30
				},
				{
					"input":25,
					"interpolation":"STEP",
					"output":31
				},
				{
					"input":25,
					"interpolation":"STEP",
					"output":32
				}
			]
		},
		{
			"channels":[
				{
					"sampler":0,
					"target":{
						"node":1,
						"path":"translation"
					}
				},
				{
					"sampler":1,
					"target":{
						"node":1,
						"path":"rotation"
					}
				},
				{
					"sampler":2,
					"target":{
						"node":1,
						"path":"scale"
					}
				}
			],
			"name":"foot.003Action",
			"samplers":[
				{
					"input":27,
					"interpolation":"LINEAR",
					"output":33
				},
				{
					"input":25,
					"interpolation":"STEP",
					"output":34
				},
				{
					"input":25,
					"interpolation":"STEP",
					"output":35
				}
			]
		},
		{
			"channels":[
				{
					"sampler":0,
					"target":{
						"node":2,
						"path":"translation"
					}
				},
				{
					"sampler":1,
					"target":{
						"node":2,
						"path":"rotation"
					}
				},
				{
					"sampler":2,
					"target":{
						"node":2,
						"path":"scale"
					}
				}
			],
			"name":"foot.002Action",
			"samplers":[
				{
					"input":27,
					"interpolation":"LINEAR",
					"output":36
				},
				{
					"input":25,
					"interpolation":"STEP",
					"output":37
				},
				{
					"input":25,
					"interpolation":"STEP",
					"output":38
				}
			]
		},
		{
			"channels":[
				{
					"sampler":0,
					"target":{
						"node":3,
						"path":"translation"
					}
				},
				{
					"sampler":1,
					"target":{
						"node":3,
						"path":"rotation"
					}
				},
				{
					"sampler":2,
					"target":{
						"node":3,
						"path":"scale"
					}
				}
			],
			"name":"walkAction.001",
			"samplers":[
				{
					"input":27,
					"interpolation":"LINEAR",
					"output":39
				},
				{
					"input":25,
					"interpolation":"STEP",
					"output":40
				},
				{
					"input":25,
					"interpolation":"STEP",
					"output":41
				}
			]
		},
		{
			"channels":[
				{
					"sampler":0,
					"target":{
						"node":4,
						"path":"translation"
					}
				},
				{
					"sampler":1,
					"target":{
						"node":4,
						"path":"rotation"
					}
				},
				{
					"sampler":2,
					"target":{
						"node":4,
						"path":"scale"
					}
				}
			],
			"name":"walkAction",
			"samplers":[
				{
					"input":27,
					"interpolation":"LINEAR",
					"output":42
				},
				{
					"input":25,
					"interpolation":"STEP",
					"output":43
				},
				{
					"input":25,
					"interpolation":"STEP",
					"output":44
				}
			]
		},
		{
			"channels":[
				{
					"sampler":0,
					"target":{
						"node":5,
						"path":"translation"
					}
				},
				{
					"sampler":1,
					"target":{
						"node":5,
						"path":"rotation"
					}
				},
				{
					"sampler":2,
					"target":{
						"node":5,
						"path":"scale"
					}
				}
			],
			"name":"walkAction",
			"samplers":[
				{
					"input":27,
					"interpolation":"LINEAR",
					"output":45
				},
				{
					"input":25,
					"interpolation":"STEP",
					"output":46
				},
				{
					"input":25,
					"interpolation":"STEP",
					"output":47
				}
			]
		}
	],
	"materials":[
		{
			"doubleSided":true,
			"name":"Material.003",
			"pbrMetallicRoughness":{
				"baseColorFactor":[
					0.800000011920929,
					0.800000011920929,
					0.800000011920929,
					1
				],
				"metallicFactor":0,
				"roughnessFactor":0.5
			}
		},
		{
			"doubleSided":true,
			"name":"Material.002",
			"pbrMetallicRoughness":{
				"baseColorFactor":[
					0.800000011920929,
					0.800000011920929,
					0.800000011920929,
					1
				],
				"metallicFactor":0,
				"roughnessFactor":0.5
			}
		},
		{
			"doubleSided":true,
			"name":"Material.001",
			"pbrMetallicRoughness":{
				"baseColorFactor":[
					0.800000011920929,
					0.800000011920929,
					0.800000011920929,
					1
				],
				"metallicFactor":0,
				"roughnessFactor":0.5
			}
		}
	],
	"meshes":[
		{
			"name":"Cube.003",
			"primitives":[
				{
					"attributes":{
						"POSITION":0,
						"NORMAL":1,
						"TEXCOORD_0":2
					},
					"indices":3,
					"material":0
				}
			]
		},
		{
			"name":"Cube.006",
			"primitives":[
				{
					"attributes":{
						"POSITION":4,
						"NORMAL":5,
						"TEXCOORD_0":6
					},
					"indices":7
				}
			]
		},
		{
			"name":"Cube.005",
			"primitives":[
				{
					"attributes":{
						"POSITION":8,
						"NORMAL":9,
						"TEXCOORD_0":10
					},
					"indices":7
				}
			]
		},
		{
			"name":"Cube.004",
			"primitives":[
				{
					"attributes":{
						"POSITION":11,
						"NORMAL":12,
						"TEXCOORD_0":13
					},
					"indices":7
				}
			]
		},
		{
			"name":"Cube.001",
			"primitives":[
				{
					"attributes":{
						"POSITION":14,
						"NORMAL":15,
						"TEXCOORD_0":16
					},
					"indices":7
				}
			]
		},
		{
			"name":"Sphere",
			"primitives":[
				{
					"attributes":{
						"POSITION":17,
						"NORMAL":18,
						"TEXCOORD_0":19
					},
					"indices":20,
					"material":1
				}
			]
		},
		{
			"name":"Cube.002",
			"primitives":[
				{
					"attributes":{
						"POSITION":21,
						"NORMAL":22,
						"TEXCOORD_0":23
					},
					"indices":24,
					"material":2
				}
			]
		}
	],
	"accessors":[
		{
			"bufferView":0,
			"componentType":5126,
			"count":87,
			"max":[
				0.2525162100791931,
				0.7499004006385803,
				-1
			],
			"min":[
				-0.2525162100791931,
				0.24990040063858032,
				-3.2502686977386475
			],
			"type":"VEC3"
		},
		{
			"bufferView":1,
			"componentType":5126,
			"count":87,
			"type":"VEC3"
		},
		{
			"bufferView":2,
			"componentType":5126,
			"count":87,
			"type":"VEC2"
		},
		{
			"bufferView":3,
			"componentType":5123,
			"count":129,
			"type":"SCALAR"
		},
		{
			"bufferView":4,
			"componentType":5126,
			"count":96,
			"max":[
				-0.13835418224334717,
				0.21383407711982727,
				-0.460237056016922
			],
			"min":[
				-0.3383542001247406,
				0.013834081590175629,
				-0.6602370738983154
			],
			"type":"VEC3"
		},
		{
			"bufferView":5,
			"componentType":5126,
			"count":96,
			"type":"VEC3"
		},
		{
			"bufferView":6,
			"componentType":5126,
			"count":96,
			"type":"VEC2"
		},
		{
			"bufferView":7,
			"componentType":5123,
			"count":144,
			"type":"SCALAR"
		},
		{
			"bufferView":8,
			"componentType":5126,
			"count":96,
			"max":[
				0.3229835629463196,
				0.21383407711982727,
				-0.5397629737854004
			],
			"min":[
				0.12298356741666794,
				0.013834081590175629,
				-0.7397630214691162
			],
			"type":"VEC3"
		},
		{
			"bufferView":9,
			"componentType":5126,
			"count":96,
			"type":"VEC3"
		},
		{
			"bufferView":10,
			"componentType":5126,
			"count":96,
			"type":"VEC2"
		},
		{
			"bufferView":11,
			"componentType":5126,
			"count":96,
			"max":[
				-0.12520304322242737,
				0.21383407711982727,
				0.9397629499435425
			],
			"min":[
				-0.3252030313014984,
				0.013834081590175629,
				0.7397629022598267
			],
			"type":"VEC3"
		},
		{
			"bufferView":12,
			"componentType":5126,
			"count":96,
			"type":"VEC3"
		},
		{
			"bufferView":13,
			"componentType":5126,
			"count":96,
			"type":"VEC2"
		},
		{
			"bufferView":14,
			"componentType":5126,
			"count":96,
			"max":[
				0.3229835629463196,
				0.21383407711982727,
				0.8602371215820312
			],
			"min":[
				0.12298356741666794,
				0.013834081590175629,
				0.6602370738983154
			],
			"type":"VEC3"
		},
		{
			"bufferView":15,
			"componentType":5126,
			"count":96,
			"type":"VEC3"
		},
		{
			"bufferView":16,
			"componentType":5126,
			"count":96,
			"type":"VEC2"
		},
		{
			"bufferView":17,
			"componentType":5126,
			"count":4028,
			"max":[
				0.25,
				0.7963676452636719,
				2.2706124782562256
			],
			"min":[
				-0.25,
				0.1282743513584137,
				0.9943163394927979
			],
			"type":"VEC3"
		},
		{
			"bufferView":18,
			"componentType":5126,
			"count":4028,
			"type":"VEC3"
		},
		{
			"bufferView":19,
			"componentType":5126,
			"count":4028,
			"type":"VEC2"
		},
		{
			"bufferView":20,
			"componentType":5123,
			"count":5856,
			"type":"SCALAR"
		},
		{
			"bufferView":21,
			"componentType":5126,
			"count":32,
			"max":[
				0.4000000059604645,
				0.7499004006385803,
				1
			],
			"min":[
				-0.4000000059604645,
				0.24990040063858032,
				-1
			],
			"type":"VEC3"
		},
		{
			"bufferView":22,
			"componentType":5126,
			"count":32,
			"type":"VEC3"
		},
		{
			"bufferView":23,
			"componentType":5126,
			"count":32,
			"type":"VEC2"
		},
		{
			"bufferView":24,
			"componentType":5123,
			"count":60,
			"type":"SCALAR"
		},
		{
			"bufferView":25,
			"componentType":5126,
			"count":2,
			"max":[
				2.5
			],
			"min":[
				0
			],
			"type":"SCALAR"
		},
		{
			"bufferView":26,
			"componentType":5126,
			"count":2,
			"type":"VEC3"
		},
		{
			"bufferView":27,
			"componentType":5126,
			"count":61,
			"max":[
				2.5
			],
			"min":[
				0
			],
			"type":"SCALAR"
		},
		{
			"bufferView":28,
			"componentType":5126,
			"count":61,
			"type":"VEC4"
		},
		{
			"bufferView":29,
			"componentType":5126,
			"count":2,
			"type":"VEC3"
		},
		{
			"bufferView":30,
			"componentType":5126,
			"count":61,
			"type":"VEC3"
		},
		{
			"bufferView":31,
			"componentType":5126,
			"count":2,
			"type":"VEC4"
		},
		{
			"bufferView":32,
			"componentType":5126,
			"count":2,
			"type":"VEC3"
		},
		{
			"bufferView":33,
			"componentType":5126,
			"count":61,
			"type":"VEC3"
		},
		{
			"bufferView":34,
			"componentType":5126,
			"count":2,
			"type":"VEC4"
		},
		{
			"bufferView":35,
			"componentType":5126,
			"count":2,
			"type":"VEC3"
		},
		{
			"bufferView":36,
			"componentType":5126,
			"count":61,
			"type":"VEC3"
		},
		{
			"bufferView":37,
			"componentType":5126,
			"count":2,
			"type":"VEC4"
		},
		{
			"bufferView":38,
			"componentType":5126,
			"count":2,
			"type":"VEC3"
		},
		{
			"bufferView":39,
			"componentType":5126,
			"count":61,
			"type":"VEC3"
		},
		{
			"bufferView":40,
			"componentType":5126,
			"count":2,
			"type":"VEC4"
		},
		{
			"bufferView":41,
			"componentType":5126,
			"count":2,
			"type":"VEC3"
		},
		{
			"bufferView":42,
			"componentType":5126,
			"count":61,
			"type":"VEC3"
		},
		{
			"bufferView":43,
			"componentType":5126,
			"count":2,
			"type":"VEC4"
		},
		{
			"bufferView":44,
			"componentType":5126,
			"count":2,
			"type":"VEC3"
		},
		{
			"bufferView":45,
			"componentType":5126,
			"count":61,
			"type":"VEC3"
		},
		{
			"bufferView":46,
			"componentType":5126,
			"count":2,
			"type":"VEC4"
		},
		{
			"bufferView":47,
			"componentType":5126,
			"count":2,
			"type":"VEC3"
		}
	],
	"bufferViews":[
		{
			"buffer":0,
			"byteLength":1044,
			"byteOffset":0,
			"target":34962
		},
		{
			"buffer":0,
			"byteLength":1044,
			"byteOffset":1044,
			"target":34962
		},
		{
			"buffer":0,
			"byteLength":696,
			"byteOffset":2088,
			"target":34962
		},
		{
			"buffer":0,
			"byteLength":258,
			"byteOffset":2784,
			"target":34963
		},
		{
			"buffer":0,
			"byteLength":1152,
			"byteOffset":3044,
			"target":34962
		},
		{
			"buffer":0,
			"byteLength":1152,
			"byteOffset":4196,
			"target":34962
		},
		{
			"buffer":0,
			"byteLength":768,
			"byteOffset":5348,
			"target":34962
		},
		{
			"buffer":0,
			"byteLength":288,
			"byteOffset":6116,
			"target":34963
		},
		{
			"buffer":0,
			"byteLength":1152,
			"byteOffset":6404,
			"target":34962
		},
		{
			"buffer":0,
			"byteLength":1152,
			"byteOffset":7556,
			"target":34962
		},
		{
			"buffer":0,
			"byteLength":768,
			"byteOffset":8708,
			"target":34962
		},
		{
			"buffer":0,
			"byteLength":1152,
			"byteOffset":9476,
			"target":34962
		},
		{
			"buffer":0,
			"byteLength":1152,
			"byteOffset":10628,
			"target":34962
		},
		{
			"buffer":0,
			"byteLength":768,
			"byteOffset":11780,
			"target":34962
		},
		{
			"buffer":0,
			"byteLength":1152,
			"byteOffset":12548,
			"target":34962
		},
		{
			"buffer":0,
			"byteLength":1152,
			"byteOffset":13700,
			"target":34962
		},
		{
			"buffer":0,
			"byteLength":768,
			"byteOffset":14852,
			"target":34962
		},
		{
			"buffer":0,
			"byteLength":48336,
			"byteOffset":15620,
			"target":34962
		},
		{
			"buffer":0,
			"byteLength":48336,
			"byteOffset":63956,
			"target":34962
		},
		{
			"buffer":0,
			"byteLength":32224,
			"byteOffset":112292,
			"target":34962
		},
		{
			"buffer":0,
			"byteLength":11712,
			"byteOffset":144516,
			"target":34963
		},
		{
			"buffer":0,
			"byteLength":384,
			"byteOffset":156228,
			"target":34962
		},
		{
			"buffer":0,
			"byteLength":384,
			"byteOffset":156612,
			"target":34962
		},
		{
			"buffer":0,
			"byteLength":256,
			"byteOffset":156996,
			"target":34962
		},
		{
			"buffer":0,
			"byteLength":120,
			"byteOffset":157252,
			"target":34963
		},
		{
			"buffer":0,
			"byteLength":8,
			"byteOffset":157372
		},
		{
			"buffer":0,
			"byteLength":24,
			"byteOffset":157380
		},
		{
			"buffer":0,
			"byteLength":244,
			"byteOffset":157404
		},
		{
			"buffer":0,
			"byteLength":976,
			"byteOffset":157648
		},
		{
			"buffer":0,
			"byteLength":24,
			"byteOffset":158624
		},
		{
			"buffer":0,
			"byteLength":732,
			"byteOffset":158648
		},
		{
			"buffer":0,
			"byteLength":32,
			"byteOffset":159380
		},
		{
			"buffer":0,
			"byteLength":24,
			"byteOffset":159412
		},
		{
			"buffer":0,
			"byteLength":732,
			"byteOffset":159436
		},
		{
			"buffer":0,
			"byteLength":32,
			"byteOffset":160168
		},
		{
			"buffer":0,
			"byteLength":24,
			"byteOffset":160200
		},
		{
			"buffer":0,
			"byteLength":732,
			"byteOffset":160224
		},
		{
			"buffer":0,
			"byteLength":32,
			"byteOffset":160956
		},
		{
			"buffer":0,
			"byteLength":24,
			"byteOffset":160988
		},
		{
			"buffer":0,
			"byteLength":732,
			"byteOffset":161012
		},
		{
			"buffer":0,
			"byteLength":32,
			"byteOffset":161744
		},
		{
			"buffer":0,
			"byteLength":24,
			"byteOffset":161776
		},
		{
			"buffer":0,
			"byteLength":732,
			"byteOffset":161800
		},
		{
			"buffer":0,
			"byteLength":32,
			"byteOffset":162532
		},
		{
			"buffer":0,
			"byteLength":24,
			"byteOffset":162564
		},
		{
			"buffer":0,
			"byteLength":732,
			"byteOffset":162588
		},
		{
			"buffer":0,
			"byteLength":32,
			"byteOffset":163320
		},
		{
			"buffer":0,
			"byteLength":24,
			"byteOffset":163352
		}
	],
	"buffers":[
		{
			"byteLength":163376,
			"uri":"data:application/octet-stream;base64,"
		}
	]
}
